<svg width="128" height="52" viewBox="0 0 128 52" fill="none" xmlns="http://www.w3.org/2000/svg">
<g clip-path="url(#clip0_67_5655)">
<path d="M0.660156 0.351562V3.8184H25.318V0.351562H0.660156ZM28.8115 0.351562V3.8184H63.95C63.95 3.8184 60.3607 0.351562 55.607 0.351562H28.8115ZM70.8431 0.351562V3.8184H92.1013L90.8395 0.351562H70.8431ZM107.342 0.351562L106.081 3.8184H127.146V0.351562H107.342ZM0.660156 7.09374V10.5606H25.318V7.09374H0.660156ZM28.8115 7.09868V10.5606H68.0274C68.0274 10.5606 67.5695 7.8924 66.7706 7.09868H28.8115ZM70.8431 7.09868V10.5606H94.432L93.2642 7.09868H70.8431ZM104.819 7.09868L103.651 10.5606H127.146V7.09868H104.819ZM7.74624 13.8359V17.3072H18.4249V13.8359H7.74624ZM35.8976 13.8359V17.3072H46.5762V13.8359H35.8976ZM56.9629 13.8359V17.3072H67.6415C67.6415 17.3072 68.3194 15.4738 68.3194 13.8357H56.9629V13.8359ZM77.9292 13.8359V17.3072H96.8617L95.5998 13.8357H77.9292V13.8359ZM102.493 13.8359L101.226 17.3074H120.253V13.8359H102.493ZM7.74624 20.583V24.0494H18.4249V20.583H7.74624ZM35.8976 20.583V24.0494H63.1731C63.1731 24.0494 65.4548 22.2704 66.1817 20.5825H35.8976V20.583ZM77.9292 20.583V24.0494H88.6078V22.1195L89.2857 24.0494H108.847L109.574 22.1195V24.0494H120.253V20.583H100.207L99.1429 23.5196L98.074 20.583H77.9292ZM7.74624 27.3247V30.7915H18.4249V27.3247H7.74624ZM35.8976 27.3247V30.7915H66.1817C65.4545 29.1091 63.1731 27.3247 63.1731 27.3247H35.8976ZM77.9292 27.3247V30.7915H88.6078V27.3247H77.9292ZM90.5475 27.3247L91.8391 30.7915H106.506L107.733 27.3247H90.5475ZM109.574 27.3247V30.7915H120.253V27.3247H109.574ZM7.74624 34.0669V37.5337H18.4249V34.0669H7.74624ZM35.8976 34.0669V37.5337H46.5762V34.0669H35.8976ZM56.9629 34.0669V37.5337H68.3194C68.3194 35.8975 67.6415 34.0669 67.6415 34.0669H56.9629ZM77.9292 34.0669V37.5337H88.6078V34.0669H77.9292ZM92.9722 34.0669L94.2242 37.5337H104.057L105.318 34.0669H92.9722ZM109.574 34.0669V37.5337H120.253V34.0669H109.574ZM0.853143 40.8093V44.2808H25.5109V40.8091H0.853143V40.8093ZM28.8115 40.8093V44.2808H66.7706C67.5695 43.4859 68.0274 40.8091 68.0274 40.8091H28.8115V40.8093ZM71.0361 40.8093V44.2808H88.6078V40.8091H71.0361V40.8093ZM95.4019 40.8093L96.6885 44.2808H101.691L102.899 40.8091H95.4019V40.8093ZM109.574 40.8093V44.2808H127.339V40.8091H109.574V40.8093ZM0.853143 47.5562V51.023H25.5109V47.5562H0.853143ZM28.8115 47.5562V51.0178H55.607C60.3607 51.0178 63.95 47.5559 63.95 47.5559H28.8115V47.5562ZM71.0361 47.5562V51.023H88.6078V47.5562H71.0361ZM97.8415 47.5562L99.0786 51.0129L99.2913 51.0178L100.548 47.5559H97.8415V47.5562ZM109.574 47.5562V51.023H127.339V47.5562H109.574Z" fill="#1F70C1"/>
</g>
<defs>
<clipPath id="clip0_67_5655">
<rect width="126.679" height="50.7209" fill="white" transform="translate(0.660156 0.351562)"/>
</clipPath>
</defs>
</svg>
