<svg width="42" height="42" viewBox="0 0 42 42" fill="none" xmlns="http://www.w3.org/2000/svg">
<path d="M35.7165 4.65234H6.25739C5.54893 4.65234 4.97656 5.22472 4.97656 5.93317V35.3923C4.97656 36.1007 5.54893 36.6731 6.25739 36.6731H35.7165C36.425 36.6731 36.9973 36.1007 36.9973 35.3923V5.93317C36.9973 5.22472 36.425 4.65234 35.7165 4.65234ZM14.4747 31.938H9.72364V16.6561H14.4747V31.938ZM12.1012 14.5668C11.5565 14.5668 11.0241 14.4053 10.5713 14.1027C10.1184 13.8001 9.76545 13.37 9.55702 12.8668C9.34859 12.3636 9.29406 11.8099 9.40031 11.2758C9.50657 10.7416 9.76884 10.2509 10.154 9.86577C10.5391 9.48064 11.0298 9.21837 11.5639 9.11212C12.0981 9.00586 12.6518 9.06039 13.155 9.26882C13.6582 9.47725 14.0883 9.83021 14.3909 10.2831C14.6935 10.7359 14.855 11.2683 14.855 11.813C14.851 13.334 13.6182 14.5668 12.1012 14.5668ZM32.2623 31.938H27.5152V24.5052C27.5152 22.7321 27.4832 20.4546 25.0456 20.4546C22.576 20.4546 22.1957 22.3838 22.1957 24.3771V31.938H17.4527V16.6561H22.0076V18.7455H22.0717C22.7041 17.5447 24.2531 16.2759 26.5666 16.2759C31.3777 16.2759 32.2623 19.4419 32.2623 23.5566V31.938Z" fill="white"/>
</svg>
