<svg width="46" height="47" viewBox="0 0 46 47" fill="none" xmlns="http://www.w3.org/2000/svg">
<path d="M22.9987 27.0033C27.2269 27.0033 30.6654 23.5648 30.6654 19.3366C30.6654 15.1084 27.2269 11.6699 22.9987 11.6699C18.7705 11.6699 15.332 15.1084 15.332 19.3366C15.332 23.5648 18.7705 27.0033 22.9987 27.0033ZM22.9987 15.5033C25.1128 15.5033 26.832 17.2225 26.832 19.3366C26.832 21.4507 25.1128 23.1699 22.9987 23.1699C20.8846 23.1699 19.1654 21.4507 19.1654 19.3366C19.1654 17.2225 20.8846 15.5033 22.9987 15.5033Z" fill="white"/>
<path d="M21.8898 41.9798C22.2142 42.2114 22.6029 42.336 23.0015 42.336C23.4001 42.336 23.7887 42.2114 24.1131 41.9798C24.6958 41.5677 38.3904 31.6796 38.3348 19.3363C38.3348 10.8818 31.4559 4.00293 23.0015 4.00293C14.5471 4.00293 7.66814 10.8818 7.66814 19.3267C7.61255 31.6796 21.3071 41.5677 21.8898 41.9798ZM23.0015 7.83626C29.3437 7.83626 34.5015 12.994 34.5015 19.3458C34.5417 27.852 26.0911 35.4899 23.0015 37.995C19.9137 35.488 11.4612 27.8482 11.5015 19.3363C11.5015 12.994 16.6592 7.83626 23.0015 7.83626Z" fill="white"/>
</svg>
