<svg width="42" height="42" viewBox="0 0 42 42" fill="none" xmlns="http://www.w3.org/2000/svg">
<path d="M35.7165 4.66602H6.25739C5.54893 4.66602 4.97656 5.23839 4.97656 5.94685V35.406C4.97656 36.1144 5.54893 36.6868 6.25739 36.6868H35.7165C36.425 36.6868 36.9973 36.1144 36.9973 35.406V5.94685C36.9973 5.23839 36.425 4.66602 35.7165 4.66602ZM14.4747 31.9517H9.72364V16.6698H14.4747V31.9517ZM12.1012 14.5804C11.5565 14.5804 11.0241 14.4189 10.5713 14.1164C10.1184 13.8138 9.76545 13.3837 9.55702 12.8805C9.34859 12.3773 9.29406 11.8236 9.40031 11.2894C9.50657 10.7552 9.76884 10.2646 10.154 9.87944C10.5391 9.49432 11.0298 9.23204 11.5639 9.12579C12.0981 9.01953 12.6518 9.07407 13.155 9.28249C13.6582 9.49092 14.0883 9.84388 14.3909 10.2967C14.6935 10.7496 14.855 11.282 14.855 11.8267C14.851 13.3476 13.6182 14.5804 12.1012 14.5804ZM32.2623 31.9517H27.5152V24.5189C27.5152 22.7457 27.4832 20.4683 25.0456 20.4683C22.576 20.4683 22.1957 22.3975 22.1957 24.3908V31.9517H17.4527V16.6698H22.0076V18.7592H22.0717C22.7041 17.5584 24.2531 16.2896 26.5666 16.2896C31.3777 16.2896 32.2623 19.4556 32.2623 23.5703V31.9517Z" fill="#2091F9"/>
</svg>
