<svg width="28" height="23" viewBox="0 0 28 23" fill="none" xmlns="http://www.w3.org/2000/svg">
<g clip-path="url(#clip0_67_7874)">
<path d="M25.8125 1.35742H1.4375C0.918945 1.35742 0.5 1.77637 0.5 2.29492V21.0449C0.5 21.5635 0.918945 21.9824 1.4375 21.9824H25.8125C26.3311 21.9824 26.75 21.5635 26.75 21.0449V2.29492C26.75 1.77637 26.3311 1.35742 25.8125 1.35742ZM24.6406 4.60352V19.873H2.60938V4.60352L1.80078 3.97363L2.95215 2.49414L4.20605 3.46973H23.0469L24.3008 2.49414L25.4521 3.97363L24.6406 4.60352ZM23.0469 3.4668L13.625 10.791L4.20312 3.4668L2.94922 2.49121L1.79785 3.9707L2.60645 4.60059L12.6143 12.3818C12.9021 12.6054 13.2561 12.7268 13.6206 12.7268C13.9851 12.7268 14.3391 12.6054 14.627 12.3818L24.6406 4.60352L25.4492 3.97363L24.2979 2.49414L23.0469 3.4668Z" fill="#2091F9"/>
</g>
<defs>
<clipPath id="clip0_67_7874">
<rect width="27" height="22" fill="white" transform="translate(0.5 0.669922)"/>
</clipPath>
</defs>
</svg>
