<svg width="27" height="33" viewBox="0 0 27 33" fill="none" xmlns="http://www.w3.org/2000/svg">
<g clip-path="url(#clip0_67_7862)">
<path d="M13.5013 19.3366C16.9941 19.3366 19.8346 16.4961 19.8346 13.0033C19.8346 9.51042 16.9941 6.66992 13.5013 6.66992C10.0085 6.66992 7.16797 9.51042 7.16797 13.0033C7.16797 16.4961 10.0085 19.3366 13.5013 19.3366ZM13.5013 9.83659C15.2477 9.83659 16.668 11.2568 16.668 13.0033C16.668 14.7497 15.2477 16.1699 13.5013 16.1699C11.7549 16.1699 10.3346 14.7497 10.3346 13.0033C10.3346 11.2568 11.7549 9.83659 13.5013 9.83659Z" fill="#2091F9"/>
<path d="M12.2485 31.7091C12.5164 31.9004 12.8375 32.0033 13.1668 32.0033C13.4961 32.0033 13.8172 31.9004 14.0851 31.7091C14.5665 31.3687 25.8794 23.2002 25.8335 13.0036C25.8335 6.0195 20.1509 0.336914 13.1668 0.336914C6.18272 0.336914 0.500139 6.0195 0.500139 12.9957C0.454223 23.2002 11.7671 31.3687 12.2485 31.7091ZM13.1668 3.50358C18.4061 3.50358 22.6668 7.76433 22.6668 13.0115C22.7001 20.0383 15.7191 26.3479 13.1668 28.4173C10.6161 26.3463 3.63356 20.0352 3.66681 13.0036C3.66681 7.76433 7.92756 3.50358 13.1668 3.50358Z" fill="#2091F9"/>
</g>
<defs>
<clipPath id="clip0_67_7862">
<rect width="26" height="32" fill="white" transform="translate(0.5 0.169922)"/>
</clipPath>
</defs>
</svg>
